<?xml version="1.0" encoding="UTF-8" standalone="no"?>
<svg stroke-miterlimit="10" style="fill-rule:nonzero;clip-rule:evenodd;stroke-linecap:round;stroke-linejoin:round;" version="1.1" viewBox="0 0 1024 1024" width="100%">
<defs/>
<g id="Layer-1" >
<path d="M313.125 287C257.634 287 205.196 336.904 196 398.469L128.5 850.531C119.304 912.096 156.821 962 212.312 962L811.375 962C866.867 962 904.543 912.073 895.562 850.469L829.688 398.531C820.707 336.926 768.46 287 712.969 287L313.125 287ZM494.594 459.562C508.016 459.563 519.982 462.708 530.469 469C540.955 475.292 549.207 484.16 555.219 495.625L555.219 465.625L616.656 465.625L616.656 682.906C616.656 720.517 608.144 747.667 591.156 764.375C574.168 781.083 546.608 789.437 508.438 789.438C495.574 789.438 482.834 788.513 470.25 786.625C457.666 784.737 444.878 781.821 431.875 777.906L431.875 721.5C443.48 727.932 455.319 732.674 467.344 735.75C479.368 738.826 491.714 740.375 504.438 740.375C521.775 740.375 534.594 736.273 542.844 728.094C551.093 719.914 555.219 707.181 555.219 689.844L555.219 664.438C549.207 675.623 541.208 683.953 531.281 689.406C521.354 694.859 509.262 697.594 495 697.594C468.155 697.594 446.831 687.097 431.031 666.125C415.232 645.152 407.344 616.714 407.344 580.781C407.344 543.59 415.232 514.093 431.031 492.281C446.831 470.47 468.028 459.563 494.594 459.562ZM511.781 509.875C498.918 509.875 488.556 516.166 480.656 528.75C472.757 541.334 468.781 558.2 468.781 579.312C468.781 600.565 472.757 617.479 480.656 630.062C488.556 642.646 498.918 648.937 511.781 648.938C524.784 648.938 535.28 642.591 543.25 629.938C551.22 617.284 555.219 600.425 555.219 579.312C555.219 558.34 551.22 541.529 543.25 528.875C535.28 516.221 524.784 509.875 511.781 509.875Z" fill-rule="evenodd" opacity="1" stroke="none"/>
<path d="M512 62C436.061 62 374.5 123.561 374.5 199.5C374.5 275.439 436.061 337 512 337C587.939 337 649.5 275.439 649.5 199.5C649.5 123.561 587.939 62 512 62ZM512 137C546.518 137 574.5 164.982 574.5 199.5C574.5 234.018 546.518 262 512 262C477.482 262 449.5 234.018 449.5 199.5C449.5 164.982 477.482 137 512 137Z" fill-rule="evenodd" opacity="1" stroke="none"/>
</g>
</svg>
