<?xml version="1.0" encoding="UTF-8"?>
<!-- Generated by Pixelmator Pro 2.3.8 -->
<svg width="120" height="120" viewBox="0 0 120 120" xmlns="http://www.w3.org/2000/svg" xmlns:xlink="http://www.w3.org/1999/xlink">
    <path id="Rounded-Rectangle-0" fill-rule="evenodd" stroke="none" d="M 4 56 C 1.79088 56 0 57.790878 0 60 L 0 60 C 0 62.209122 1.79088 64 4 64 L 116 64 C 118.209122 64 120 62.209122 120 60 L 120 60 C 120 57.790878 118.209122 56 116 56 Z"/>
    <path id="Rounded-Rectangle-1" fill-rule="evenodd" stroke="none" d="M 4 25 C 1.79088 25 0 26.790878 0 29 L 0 29 C 0 31.209122 1.79088 33 4 33 L 116 33 C 118.209122 33 120 31.209122 120 29 L 120 29 C 120 26.790878 118.209122 25 116 25 Z"/>
    <path id="Rounded-Rectangle-2" fill-rule="evenodd" stroke="none" d="M 4 87 C 1.79088 87 0 88.790878 0 91 L 0 91 C 0 93.209122 1.79088 95 4 95 L 116 95 C 118.209122 95 120 93.209122 120 91 L 120 91 C 120 88.790878 118.209122 87 116 87 Z"/>
</svg>
