<?xml version="1.0" encoding="UTF-8" standalone="no"?>
<svg stroke-miterlimit="10" style="fill-rule:nonzero;clip-rule:evenodd;stroke-linecap:round;stroke-linejoin:round;" version="1.1" viewBox="0 0 1024 1024">
<defs/>
<g id="Layer-1">
<path d="M576.156 122.85C492.981 122.85 409.804 154.577 346.343 218.037C228.397 335.984 220.139 521.992 321.406 649.569L258 712.975C257.962 713.013 257.943 713.062 257.906 713.1C239.116 710.437 219.358 716.242 204.906 730.694L81.1558 854.444C56.7481 878.852 56.7481 918.442 81.1558 942.85C105.564 967.258 145.154 967.258 169.562 942.85L293.312 819.1C307.764 804.648 313.568 784.89 310.906 766.1C310.944 766.063 310.993 766.044 311.031 766.006L374.437 702.6C502.014 803.866 688.022 795.608 805.968 677.662C932.889 550.742 932.889 344.958 805.968 218.037C742.508 154.577 659.331 122.85 576.156 122.85ZM576.156 197.85C640.136 197.85 704.09 222.284 752.906 271.1C850.537 368.731 850.537 527 752.906 624.631C655.359 722.179 497.276 722.261 399.625 624.881C399.54 624.795 399.492 624.686 399.406 624.6C399.32 624.514 399.211 624.466 399.125 624.381C301.745 526.73 301.827 368.647 399.375 271.1C448.19 222.284 512.175 197.85 576.156 197.85Z" fill-rule="evenodd" opacity="1" stroke="none"/>
</g>
</svg>
