<?xml version="1.0" ?><svg width="100px" height="100px" viewBox="0 0 100 100" id="Слой_1" style="enable-background:new 0 0 100 100;" version="1.1" xml:space="preserve" xmlns="http://www.w3.org/2000/svg" xmlns:xlink="http://www.w3.org/1999/xlink"><path d="M84.37,73.92c-4.57,6.9-11.62,15.2-25.64,18.14c-15.81,3.31-33.14-2.15-42.14-13.27c-9.52-11.77-6.73-26.45-3.88-31.72  c3.16-5.87,8.3-8.91,13.07-10.5c1.2-0.39,2.38-0.69,3.49-0.93c-0.33,0.53-0.62,1.06-0.88,1.59c-0.12,0.25-0.02,0.55,0.23,0.67  c0.07,0.03,0.14,0.05,0.22,0.05c0.18,0,0.36-0.1,0.45-0.28c2.96-6.1,11.61-12.74,20.42-12.85c0.28,0,0.5-0.23,0.5-0.51  c0-0.27-0.23-0.49-0.5-0.49H49.7c-0.58,0.01-1.15,0.04-1.72,0.1c5.43-5.83,14.52-5.24,18.28-4.69c6.57,0.96,15.97,6.51,20.79,18.98  C91.82,50.55,90.8,64.23,84.37,73.92z"/><path d="M50.85,20.38c-0.03,0.02-0.06,0.05-0.08,0.08l-0.01,0.02c-1.52,0.86-2.93,2-4.15,3.5c-0.03,0.04-0.06,0.08-0.08,0.13  c-6.81,1.15-13.02,5.57-16.48,10.37c-0.01,0-0.01,0-0.02,0c-1.38,0.24-2.87,0.59-4.4,1.1c-0.03,0-0.05,0-0.08,0.01  c-0.07,0.02-7.46,2.15-10.88-1.39c-1.55-1.6-2.23-3.89-1.86-6.27c0.29-1.88,1.2-3.54,2.32-4.2c0.12,0.23,0.25,0.8,0.36,1.26  c0.39,1.63,0.97,4.08,3.02,5.88l0.01,0.01c0.64,0.82,1.49,1.55,2.6,2.14c0.07,0.04,0.15,0.06,0.23,0.06c0.18,0,0.36-0.09,0.45-0.26  c0.13-0.24,0.03-0.55-0.21-0.68c-4.96-2.65-3.59-8.05-3.42-8.66c1.16-4.07,3.41-6.17,5.27-6.59c-0.44,1.78-1.26,6.37,1.16,9.3  c1.66,2.03,4.51,2.82,8.46,2.35c0.03,0,0.05-0.01,0.08-0.03h0.01c0.26-0.01,0.47-0.21,0.49-0.48c0-0.09,0.08-2.36-1.21-5.28  c-0.93-2.09-2.79-3.52-3.9-4.38c-0.32-0.24-0.69-0.52-0.74-0.6c-0.2-0.47,0.32-1.78,1.38-2.92c0.77-0.82,1.9-1.59,2.75-1.29  c1.46,0.52,4.59,6.37,4.01,12.39c0,0.01,0,0.01,0,0.02c-0.11,0.2-0.08,0.45,0.09,0.61c0.1,0.09,0.22,0.13,0.34,0.13  c0.14,0,0.27-0.05,0.37-0.16c3.93-4.25,4.83-9.32,2.68-15.07c0.01,0,0.01,0,0.02,0c0.89,0,2.27,0.41,3.57,1.26  c1.07,0.69,2.88,2.23,3.12,4.73c0,0.03,0.01,0.05,0.02,0.07c-0.08,0.2-0.03,0.43,0.14,0.57c0.21,0.18,0.53,0.15,0.7-0.06  c0.05-0.06,1.15-1.41,0.84-4.89c-0.17-1.94-0.86-3.23-1.36-4.17c-0.49-0.94-0.72-1.41-0.49-1.93c0.43-0.11,1.89-0.13,3.44,0.54  c1.28,0.56,2.98,1.76,3.84,4.34C54.6,16.03,52.38,19.17,50.85,20.38z"/></svg>