<?xml version="1.0" encoding="UTF-8" standalone="no"?>
<svg stroke-miterlimit="10" style="fill-rule:nonzero;clip-rule:evenodd;stroke-linecap:round;stroke-linejoin:round;" version="1.1" viewBox="0 0 1024 1024" width="100%">
<defs/>
<g id="Layer-1" >
<path d="M329.848 125C195.721 125 87.0001 233.755 87 367.881C87 443.37 137.144 608.928 301.359 773.557C462.066 934.667 492.661 943.259 493.904 943.557L493.938 943.656L494.137 943.656C494.137 943.656 494.17 943.656 494.17 943.656L494.303 943.656C499.008 947.887 505.174 950.529 512 950.529C518.826 950.529 524.992 947.887 529.697 943.656L529.83 943.656C529.83 943.656 529.863 943.656 529.863 943.656L530.062 943.656L530.096 943.557C531.339 943.259 561.934 934.667 722.641 773.557C886.856 608.928 937 443.37 937 367.881C937 233.755 828.279 125 694.152 125C689.617 125 685.113 125.119 680.639 125.365C618.006 128.807 561.712 156.04 520.566 198.113C517.627 201.119 514.781 204.19 512 207.344C467.498 156.886 402.415 125 329.848 125ZM352.625 375.883L424.775 375.883C427.012 388.745 432.585 407.758 440.414 429.008L499.682 591.736C503.037 600.125 508.645 618.005 512 629.189C515.915 616.887 520.404 603.485 524.318 592.301L584.15 429.008C593.657 402.725 596.988 391.541 599.225 375.883L671.375 375.883C663.546 390.982 658.499 402.162 645.078 435.715L562.336 638.154C550.593 667.233 548.359 673.364 545.004 689.021L479.561 689.021C476.205 675.041 472.848 666.115 461.664 638.154L379.453 435.715C372.183 417.82 364.368 400.488 352.625 375.883Z" fill-rule="evenodd" opacity="1" stroke="none"/>
</g>
</svg>
