<?xml version="1.0" encoding="UTF-8" standalone="no"?>
<svg stroke-miterlimit="10" style="fill-rule:nonzero;clip-rule:evenodd;stroke-linecap:round;stroke-linejoin:round;" version="1.1" viewBox="0 0 1024 1024" width="100%">
<defs/>
<g id="Layer-1">
<path d="M540.806 120.497L700.724 300.917C715.444 317.524 709.387 330.985 687.195 330.983L340.926 330.947C318.734 330.945 312.684 317.487 327.413 300.887L487.484 120.483C502.213 103.883 526.086 103.889 540.806 120.497Z" fill-rule="evenodd" opacity="1" stroke="none"/>
<path d="M485.642 725.575L315.114 430.21C299.417 403.023 312.142 380.983 343.535 380.983L684.593 380.983C715.986 380.983 728.711 403.023 713.014 430.21L542.485 725.575C526.789 752.763 501.339 752.763 485.642 725.575Z" fill-rule="evenodd" opacity="1" stroke="none"/>
<path d="M568.674 76.3642L767.118 299.679C779.357 313.452 802.213 317.146 818.167 307.929L875.944 274.55C891.899 265.333 891.89 250.404 875.924 241.206L575.421 68.08C559.455 58.8819 556.435 62.5909 568.674 76.3642Z" fill-rule="evenodd" opacity="1" stroke="none"/>
<path d="M459.538 76.3649L261.095 299.68C248.856 313.453 226 317.147 210.045 307.929L152.269 274.551C136.314 265.334 136.323 250.405 152.289 241.207L452.792 68.0807C468.757 58.8826 471.778 62.5916 459.538 76.3649Z" fill-rule="evenodd" opacity="1" stroke="none"/>
<path d="M840.036 730.721L603.829 779.003C582.086 783.448 573.458 771.472 584.555 752.254L757.721 452.394C768.818 433.177 783.499 434.666 790.51 455.722L866.709 684.55C873.72 705.605 861.778 726.276 840.036 730.721Z" fill-rule="evenodd" opacity="1" stroke="none"/>
<path d="M864.322 776.921L571.704 837.121C553.656 840.834 539.03 858.781 539.035 877.207L539.053 943.932C539.058 962.358 551.991 969.814 567.94 960.587L868.123 786.906C884.071 777.679 882.37 773.208 864.322 776.921Z" fill-rule="evenodd" opacity="1" stroke="none"/>
<path d="M918.889 682.407L824.714 398.892C818.906 381.406 827.135 359.766 843.095 350.557L900.89 317.21C916.85 308.002 929.774 315.474 929.757 333.9L929.437 680.706C929.42 699.131 924.698 699.893 918.889 682.407Z" fill-rule="evenodd" opacity="1" stroke="none"/>
<path d="M188.063 730.455L424.27 778.737C446.012 783.182 454.641 771.205 443.543 751.988L270.378 452.128C259.28 432.911 244.6 434.4 237.589 455.455L161.39 684.284C154.378 705.339 166.32 726.01 188.063 730.455Z" fill-rule="evenodd" opacity="1" stroke="none"/>
<path d="M163.777 776.655L456.395 836.855C474.443 840.568 489.069 858.515 489.064 876.94L489.046 943.666C489.041 962.092 476.107 969.548 460.159 960.321L159.976 786.64C144.027 777.413 145.729 772.942 163.777 776.655Z" fill-rule="evenodd" opacity="1" stroke="none"/>
<path d="M109.21 682.141L203.384 398.626C209.193 381.14 200.963 359.499 185.004 350.291L127.209 316.944C111.249 307.736 98.3248 315.208 98.3418 333.633L98.6617 680.44C98.6787 698.865 103.401 699.627 109.21 682.141Z" fill-rule="evenodd" opacity="1" stroke="none"/>
</g>
</svg>
