<?xml version="1.0" encoding="UTF-8" standalone="no"?>

<svg stroke-miterlimit="10" style="fill-rule:nonzero;clip-rule:evenodd;stroke-linecap:round;stroke-linejoin:round;" version="1.1" viewBox="0 0 1024 1024" width="100%">
<defs>

</defs>
<clipPath id="ArtboardFrame">
<rect height="1024" width="1024" x="0" y="0"/>
</clipPath>
<g clip-path="url(#ArtboardFrame)" id="Layer-1" >
<path d="M839.972 713.076L542.026 874.809L542.217 754.922L839.972 713.076Z" fill-rule="evenodd" opacity="0" stroke="none"/>
<path d="M460.936 103.231L276.411 311.167C265.017 324.007 243.73 327.457 228.864 318.874L175.029 287.793C160.163 279.21 160.167 265.301 175.038 256.727L454.64 95.5087C469.511 86.9342 472.33 90.3914 460.936 103.231Z" fill-rule="evenodd" opacity="1" stroke="none"/>
<path d="M536.609 148.302L683.772 314.332C697.318 329.615 691.744 342.002 671.323 342L352.671 341.967C332.249 341.965 326.682 329.58 340.235 314.304L487.54 148.289C501.094 133.013 523.063 133.019 536.609 148.302Z" fill-rule="evenodd" opacity="1" stroke="none"/>
<path d="M563.143 103.23L747.668 311.167C759.062 324.006 780.35 327.457 795.216 318.874L849.05 287.792C863.916 279.209 863.912 265.301 849.041 256.726L569.439 95.508C554.568 86.9335 551.75 90.3908 563.143 103.23Z" fill-rule="evenodd" opacity="1" stroke="none"/>
<path d="M891.685 671.483L803.869 407.711C798.447 391.424 806.103 371.263 820.969 362.68L874.803 331.599C889.669 323.016 901.712 329.974 901.703 347.14L901.521 669.892C901.511 687.057 897.107 687.77 891.685 671.483Z" fill-rule="evenodd" opacity="1" stroke="none"/>
<path d="M814.816 714.482L597.448 758.914C577.44 763.004 569.499 751.983 579.712 734.298L739.066 458.354C749.279 440.669 762.788 442.04 769.24 461.416L839.362 671.994C845.814 691.37 834.824 710.392 814.816 714.482Z" fill-rule="evenodd" opacity="1" stroke="none"/>
<path d="M840.582 759.997L568.241 815.832C551.425 819.28 537.793 835.99 537.793 853.156L537.793 915.319C537.793 932.484 549.84 939.435 564.702 930.844L844.122 769.311C858.983 760.719 857.398 756.55 840.582 759.997Z" fill-rule="evenodd" opacity="1" stroke="none"/>
<path d="M122.297 347.14L122.479 669.892C122.489 687.057 126.893 687.77 132.315 671.483L220.131 407.711C225.553 391.424 217.897 371.263 203.031 362.68L149.197 331.599C134.331 323.016 122.288 329.974 122.297 347.14Z" fill-rule="evenodd" opacity="1" stroke="none"/>
<path d="M209.184 714.482L426.552 758.914C446.56 763.004 454.501 751.983 444.288 734.298L284.934 458.354C274.721 440.669 261.212 442.04 254.76 461.416L184.638 671.994C178.186 691.37 189.176 710.392 209.184 714.482Z" fill-rule="evenodd" opacity="1" stroke="none"/>
<path d="M459.298 930.844L179.878 769.311C165.017 760.719 166.602 756.55 183.418 759.997L455.759 815.832C472.575 819.28 486.207 835.99 486.207 853.156L486.207 915.319C486.207 932.484 474.16 939.435 459.298 930.844Z" fill-rule="evenodd" opacity="1" stroke="none"/>
<path d="M486.052 706.609L330.361 436.944C316.03 412.122 327.647 392 356.309 392L667.691 392C696.353 392 707.97 412.122 693.639 436.944L537.949 706.609C523.618 731.431 500.382 731.431 486.052 706.609Z" fill-rule="evenodd" opacity="1" stroke="none"/>
</g>
</svg>
