<?xml version="1.0" encoding="UTF-8" standalone="no"?>
<svg height="100%" stroke-miterlimit="10" style="fill-rule:nonzero;clip-rule:evenodd;stroke-linecap:round;stroke-linejoin:round;" version="1.1" viewBox="0 0 1024 1024" width="100%">
<defs/>
<g id="Layer-1">
<path d="M512 87C277.279 87 87 277.279 87 512C87 746.721 277.279 937 512 937C746.721 937 937 746.721 937 512C937 277.279 746.721 87 512 87ZM707.688 287C727.837 287 742.59 289.252 763.188 295.969L751.094 342.969C737.661 335.357 726.474 332.219 711.25 332.219C685.28 332.219 676.344 342.979 676.344 373.875L676.344 392.219L697.375 392.219C715.285 392.219 729.163 391.322 747.969 389.531L747.969 441.938C732.297 440.147 720.222 439.25 698.281 439.25L676.344 439.25L676.344 591.031C676.344 616.554 677.23 629.549 679.469 649.25L615.438 649.25C617.676 628.205 618.562 614.315 618.562 591.031L618.562 439.25L600.656 439.25C583.641 439.25 572.006 440.146 558.125 441.938L558.125 389.531C570.662 391.322 584.099 392.219 600.219 392.219L618.562 392.219L618.562 368.5C618.563 312.978 646.792 287 707.688 287ZM380.375 388.188C420.226 388.188 446.621 400.28 465.875 427.594C464.979 418.639 465 417.738 465 412.812L465 392.219L525 392.219C522.761 411.472 521.844 424.008 521.844 448.188L521.844 598.188C521.844 651.919 510.22 686.403 484.25 708.344C461.862 726.702 424.682 737 378.562 737C326.174 737 296.635 724.915 266.188 690.438L310.969 659.531C328.431 683.71 348.136 693.562 380.375 693.562C414.853 693.562 441.244 681.493 453.781 660C461.393 646.567 464.542 630.885 465.438 600.438C443.049 628.646 416.643 641.188 377.688 641.188C306.494 641.188 260.812 592.38 260.812 515.812C260.812 438.35 307.838 388.188 380.375 388.188ZM392 430.281C347.224 430.281 319.469 463.873 319.469 517.156C319.469 543.574 326.63 565.505 340.062 578.938C351.257 591.027 370.516 599.094 387.531 599.094C412.158 599.094 437.213 584.764 449.75 563.719C458.257 549.838 462.312 533.253 462.312 512.656C462.313 483.999 453.348 461.63 435.438 446.406C422.9 436.108 408.119 430.281 392 430.281Z" fill-rule="evenodd" opacity="1" stroke="none"/>
</g>
</svg>
