<?xml version="1.0" encoding="UTF-8" standalone="no"?>
<svg stroke-miterlimit="10" style="fill-rule:nonzero;clip-rule:evenodd;stroke-linecap:round;stroke-linejoin:round;" version="1.1" viewBox="0 0 1024 1024" width="100%" >
<defs/>
<g id="Layer-1">
<path d="M313.125 287C257.634 287 205.196 336.904 196 398.469L128.5 850.531C119.304 912.096 156.821 962 212.312 962L811.375 962C866.867 962 904.543 912.073 895.562 850.469L829.688 398.531C820.707 336.926 768.46 287 712.969 287L313.125 287ZM497.812 490.219C508.74 490.219 518.494 492.753 527.031 497.875C535.569 502.997 542.293 510.228 547.188 519.562L547.188 495.156L597.219 495.156L597.219 672.062C597.219 702.683 590.299 724.772 576.469 738.375C562.638 751.978 540.17 758.781 509.094 758.781C498.621 758.781 488.276 758.037 478.031 756.5C467.786 754.963 457.368 752.594 446.781 749.406L446.781 703.469C456.229 708.705 465.835 712.59 475.625 715.094C485.415 717.598 495.485 718.844 505.844 718.844C519.959 718.844 530.378 715.503 537.094 708.844C543.81 702.185 547.188 691.803 547.188 677.688L547.188 657.031C542.293 666.138 535.801 672.904 527.719 677.344C519.637 681.783 509.767 684 498.156 684C476.3 684 458.957 675.481 446.094 658.406C433.231 641.331 426.781 618.161 426.781 588.906C426.781 558.627 433.231 534.602 446.094 516.844C458.957 499.086 476.184 490.219 497.812 490.219ZM511.844 531.188C501.371 531.188 492.9 536.318 486.469 546.562C480.037 556.807 476.812 570.53 476.812 587.719C476.812 605.021 480.037 618.786 486.469 629.031C492.9 639.276 501.371 644.406 511.844 644.406C522.43 644.406 530.949 639.239 537.438 628.938C543.926 618.636 547.187 604.907 547.188 587.719C547.188 570.644 543.926 556.927 537.438 546.625C530.949 536.323 522.43 531.188 511.844 531.188Z" fill-rule="evenodd" opacity="1" stroke="none"/>
<path d="M512 62C436.061 62 374.5 123.561 374.5 199.5C374.5 275.439 436.061 337 512 337C587.939 337 649.5 275.439 649.5 199.5C649.5 123.561 587.939 62 512 62ZM512 137C546.518 137 574.5 164.982 574.5 199.5C574.5 234.018 546.518 262 512 262C477.482 262 449.5 234.018 449.5 199.5C449.5 164.982 477.482 137 512 137Z" fill-rule="evenodd" opacity="1" stroke="none"/>
</g>
</svg>
