<?xml version="1.0" encoding="UTF-8" standalone="no"?>
<svg height="100%" stroke-miterlimit="10" style="fill-rule:nonzero;clip-rule:evenodd;stroke-linecap:round;stroke-linejoin:round;" version="1.1" viewBox="0 0 1024 1024" width="100%">
<defs/>
<g id="Layer-1">
<path d="M212 249.5L115.897 148.034C105.886 128.133 115.829 112 138.107 112L409.527 112L212 249.5Z" fill-rule="evenodd" opacity="1" stroke="none"/>
<path d="M349.5 112C273.561 112 212 173.561 212 249.5L212 774.5C212 850.439 273.561 912 349.5 912L624.5 912C700.439 912 762 850.439 762 774.5L762 249.5C762 173.561 700.439 112 624.5 112L349.5 112ZM287 342.812L537 342.812C550.807 342.813 562 354.005 562 367.812C562 381.62 550.807 392.812 537 392.812L287 392.812C273.193 392.812 262 381.62 262 367.812C262 354.005 273.193 342.812 287 342.812ZM287 467.812L437 467.812C450.807 467.813 462 479.005 462 492.812C462 506.62 450.807 517.812 437 517.812L287 517.812C273.193 517.813 262 506.62 262 492.812C262 479.005 273.193 467.813 287 467.812ZM287 592.812L537 592.812C550.807 592.812 562 604.005 562 617.812C562 631.62 550.807 642.812 537 642.812L287 642.812C273.193 642.813 262 631.62 262 617.812C262 604.005 273.193 592.813 287 592.812ZM287 717.812L437 717.812C450.807 717.812 462 729.005 462 742.812C462 756.62 450.807 767.812 437 767.812L287 767.812C273.193 767.813 262 756.62 262 742.812C262 729.005 273.193 717.813 287 717.812Z" fill-rule="evenodd" opacity="1" stroke="none"/>
<path d="M552.125 112C524.511 112 534.386 312 562 312L762 312C762 298.193 773.193 287 787 287C800.807 287 812 298.193 812 312L812 462C812 489.614 834.386 512 862 512C889.614 512 912 489.614 912 462L912 262L912 249L912 237C912 231.095 910.786 225.509 908.906 220.25C906.997 211.335 904.179 202.77 900.625 194.594C897.609 187.656 894.076 181.002 890 174.719C885.965 168.498 881.494 162.595 876.531 157.125C876.482 157.07 876.425 157.023 876.375 156.969C876.148 156.718 875.886 156.499 875.656 156.25C873.546 153.965 871.385 151.731 869.125 149.594C868.414 148.918 867.663 148.285 866.938 147.625C865.165 146.019 863.356 144.45 861.5 142.938C860.253 141.916 858.971 140.947 857.688 139.969C856.346 138.951 855.005 137.938 853.625 136.969C852.083 135.882 850.525 134.836 848.938 133.812C847.711 133.024 846.472 132.25 845.219 131.5C843.355 130.381 841.483 129.281 839.562 128.25C838.824 127.854 838.059 127.507 837.312 127.125C818.618 117.523 797.479 112 775 112L552.125 112Z" fill-rule="evenodd" opacity="1" stroke="none"/>
</g>
</svg>
