<?xml version="1.0" encoding="UTF-8" standalone="no"?>
<svg stroke-miterlimit="10" style="fill-rule:nonzero;clip-rule:evenodd;stroke-linecap:round;stroke-linejoin:round;" version="1.1" viewBox="0 0 1024 1024" width="100%">
<defs/>
<g id="Layer-1" >
<path d="M162 274.5L115.897 173.034C105.886 153.133 115.829 137 138.107 137L299.5 137L162 274.5Z" fill-rule="evenodd" opacity="1" stroke="none"/>
<path d="M624.5 137C596.886 137 762 337 762 337C762 323.193 773.193 312 787 312C800.807 312 812 323.193 812 337L812 487C812 514.614 834.386 537 862 537C889.614 537 912 514.614 912 487L912 287L912 274L912 262C912 256.095 910.786 250.509 908.906 245.25C906.997 236.335 904.179 227.77 900.625 219.594C897.609 212.656 894.076 206.002 890 199.719C885.965 193.498 881.494 187.595 876.531 182.125C876.482 182.07 876.425 182.023 876.375 181.969C876.148 181.718 875.886 181.499 875.656 181.25C873.546 178.965 871.385 176.731 869.125 174.594C868.414 173.918 867.663 173.285 866.938 172.625C865.165 171.019 863.356 169.45 861.5 167.938C860.253 166.916 858.971 165.947 857.688 164.969C856.346 163.951 855.005 162.938 853.625 161.969C852.083 160.882 850.525 159.836 848.938 158.813C847.711 158.024 846.472 157.25 845.219 156.5C843.355 155.381 841.483 154.281 839.562 153.25C838.824 152.854 838.059 152.507 837.312 152.125C818.618 142.523 797.479 137 775 137L624.5 137Z" fill-rule="evenodd" opacity="1" stroke="none"/>
<path d="M299.5 137C223.561 137 162 198.561 162 274.5L162 799.5C162 875.439 223.561 937 299.5 937L574.5 937C575.776 937 577.013 936.847 578.281 936.812L578.281 937L624.5 937C700.439 937 762 875.439 762 799.5L762 274.5C762 198.561 700.439 137 624.5 137L578.281 137L578.281 137.188C577.013 137.153 575.776 137 574.5 137L299.5 137ZM237 367.813L487 367.813C500.807 367.813 512 379.005 512 392.813C512 406.62 500.807 417.813 487 417.813L237 417.813C223.193 417.812 212 406.62 212 392.813C212 379.005 223.193 367.813 237 367.813ZM237 492.813L387 492.813C400.807 492.813 412 504.005 412 517.812C412 531.62 400.807 542.812 387 542.812L237 542.812C223.193 542.813 212 531.62 212 517.812C212 504.005 223.193 492.813 237 492.813ZM237 617.812L487 617.812C500.807 617.812 512 629.005 512 642.812C512 656.62 500.807 667.812 487 667.812L237 667.812C223.193 667.813 212 656.62 212 642.812C212 629.005 223.193 617.812 237 617.812ZM237 742.812L387 742.812C400.807 742.812 412 754.005 412 767.812C412 781.62 400.807 792.812 387 792.812L237 792.812C223.193 792.813 212 781.62 212 767.812C212 754.005 223.193 742.812 237 742.812Z" fill-rule="evenodd" opacity="1" stroke="none"/>
</g>
</svg>
