<?xml version="1.0" encoding="UTF-8" standalone="no"?>
<svg height="100%" stroke-miterlimit="10" style="fill-rule:nonzero;clip-rule:evenodd;stroke-linecap:round;stroke-linejoin:round;" version="1.1" viewBox="0 0 1024 1024" width="100%">
<defs/>
<g id="Layer-1">
<path d="M262 512C262 373.929 373.929 262 512 262C650.071 262 762 373.929 762 512C762 650.071 650.071 762 512 762C373.929 762 262 650.071 262 512Z" fill-rule="evenodd" opacity="1" stroke="none"/>
<path d="M512 59.5C506.654 59.5 501.298 64.2632 497.219 73.7812L451.781 179.844C443.623 198.88 453.789 214.313 474.5 214.312L475.406 214.312C487.406 212.852 499.606 212 512 212C524.394 212 536.594 212.852 548.594 214.312L549.5 214.312C570.211 214.312 580.377 198.88 572.219 179.844L526.781 73.7812C522.702 64.2632 517.346 59.5 512 59.5Z" fill-rule="evenodd" opacity="1" stroke="none"/>
<path d="M831.933 192.044C828.152 188.263 820.997 187.845 811.382 191.69L704.256 234.559C685.026 242.251 681.303 260.352 695.947 274.996L696.588 275.637C706.106 283.09 715.335 291.114 724.099 299.878C732.863 308.642 740.887 317.871 748.339 327.389L748.98 328.029C763.625 342.674 781.726 338.95 789.418 319.721L832.286 212.594C836.132 202.98 835.713 195.824 831.933 192.044Z" fill-rule="evenodd" opacity="1" stroke="none"/>
<path d="M192.044 192.044C188.263 195.824 187.845 202.98 191.69 212.594L234.559 319.721C242.251 338.95 260.352 342.674 274.996 328.029L275.637 327.389C283.09 317.871 291.114 308.642 299.878 299.878C308.642 291.114 317.871 283.09 327.389 275.637L328.029 274.996C342.674 260.352 338.95 242.251 319.721 234.559L212.594 191.69C202.98 187.845 195.824 188.263 192.044 192.044Z" fill-rule="evenodd" opacity="1" stroke="none"/>
<path d="M831.933 831.933C835.713 828.152 836.132 820.997 832.286 811.382L789.418 704.256C781.726 685.026 763.625 681.303 748.98 695.947L748.339 696.588C740.887 706.106 732.863 715.335 724.099 724.099C715.335 732.863 706.106 740.887 696.588 748.339L695.947 748.98C681.303 763.625 685.026 781.726 704.256 789.418L811.382 832.286C820.997 836.132 828.152 835.713 831.933 831.933Z" fill-rule="evenodd" opacity="1" stroke="none"/>
<path d="M192.044 831.933C195.824 835.713 202.98 836.132 212.594 832.286L319.721 789.418C338.95 781.726 342.674 763.625 328.029 748.98L327.389 748.339C317.871 740.887 308.642 732.863 299.878 724.099C291.114 715.335 283.09 706.106 275.637 696.588L274.996 695.947C260.352 681.303 242.251 685.026 234.559 704.256L191.69 811.382C187.845 820.997 188.263 828.152 192.044 831.933Z" fill-rule="evenodd" opacity="1" stroke="none"/>
<path d="M512.075 964.812C517.421 964.812 522.777 960.049 526.856 950.531L572.294 844.469C580.452 825.433 570.286 810 549.575 810L548.669 810C536.669 811.46 524.469 812.312 512.075 812.312C499.681 812.312 487.481 811.46 475.481 810L474.575 810C453.864 810 443.698 825.433 451.856 844.469L497.294 950.531C501.373 960.049 506.729 964.812 512.075 964.812Z" fill-rule="evenodd" opacity="1" stroke="none"/>
<path d="M964.812 512C964.812 506.654 960.049 501.298 950.531 497.219L844.469 451.781C825.433 443.623 810 453.789 810 474.5L810 475.406C811.46 487.406 812.312 499.606 812.312 512C812.312 524.394 811.46 536.594 810 548.594L810 549.5C810 570.211 825.433 580.377 844.469 572.219L950.531 526.781C960.049 522.702 964.812 517.346 964.812 512Z" fill-rule="evenodd" opacity="1" stroke="none"/>
<path d="M59 512C59 517.346 63.7632 522.702 73.2812 526.781L179.344 572.219C198.38 580.377 213.813 570.211 213.812 549.5L213.812 548.594C212.352 536.594 211.5 524.394 211.5 512C211.5 499.606 212.352 487.406 213.812 475.406L213.812 474.5C213.812 453.789 198.38 443.623 179.344 451.781L73.2812 497.219C63.7632 501.298 59 506.654 59 512Z" fill-rule="evenodd" opacity="1" stroke="none"/>
</g>
</svg>
