<?xml version="1.0" encoding="UTF-8" standalone="no"?>
<svg stroke-miterlimit="10" style="fill-rule:nonzero;clip-rule:evenodd;stroke-linecap:round;stroke-linejoin:round;" version="1.1" viewBox="0 0 1024 1024" width="100%">
<defs/>
<g id="Layer-1" >
<path d="M340.562 140.844C214.326 140.844 112 243.201 112 369.438C112 440.486 159.194 596.306 313.75 751.25C465.004 902.884 493.799 910.97 494.969 911.25L495 911.344L495.188 911.344C495.188 911.344 495.219 911.344 495.219 911.344L495.344 911.344C499.772 915.326 505.576 917.812 512 917.812C518.424 917.813 524.228 915.326 528.656 911.344L528.781 911.344C528.781 911.344 528.812 911.344 528.812 911.344L529 911.344L529.031 911.25C530.201 910.97 558.996 902.884 710.25 751.25C864.806 596.306 912 440.486 912 369.438C912 243.201 809.674 140.844 683.438 140.844C679.169 140.844 674.929 140.956 670.719 141.188C611.77 144.427 558.787 170.058 520.062 209.656C517.296 212.485 514.618 215.376 512 218.344C470.116 170.855 408.861 140.844 340.562 140.844ZM362 376.969L429.906 376.969C432.012 389.074 437.257 406.969 444.625 426.969L500.406 580.125C503.564 588.02 508.842 604.849 512 615.375C515.684 603.796 519.91 591.183 523.594 580.656L579.906 426.969C588.854 402.232 591.988 391.706 594.094 376.969L662 376.969C654.632 391.179 649.882 401.702 637.25 433.281L559.375 623.812C548.322 651.181 546.22 656.951 543.062 671.688L481.469 671.688C478.311 658.53 475.151 650.128 464.625 623.812L387.25 433.281C380.408 416.439 373.053 400.127 362 376.969Z" fill-rule="evenodd" opacity="1" stroke="none"/>
</g>
</svg>
