<?xml version="1.0" encoding="UTF-8" standalone="no"?>
<svg height="100%" stroke-miterlimit="10" style="fill-rule:nonzero;clip-rule:evenodd;stroke-linecap:round;stroke-linejoin:round;" version="1.1" viewBox="0 0 1024 1024" width="100%">
<defs/>
<g id="Layer-1">
<path d="M329.844 125C195.717 125 87.0001 233.749 87 367.875C87 443.364 137.159 608.934 301.375 773.562C462.082 934.673 492.663 943.265 493.906 943.562L493.938 943.656L494.125 943.656C494.125 943.656 494.156 943.656 494.156 943.656L494.312 943.656C499.017 947.887 505.174 950.531 512 950.531C518.826 950.531 524.983 947.887 529.688 943.656L529.844 943.656C529.844 943.656 529.875 943.656 529.875 943.656L530.062 943.656L530.094 943.562C530.998 943.346 548.134 937.964 618.812 873.531C599.283 855.281 587 829.37 587 800.531C587 745.303 631.772 700.531 687 700.531C687 645.303 731.771 600.531 787 600.531C809.169 600.531 829.577 607.823 846.156 620.031C913.5 513.268 937 419.498 937 367.875C937 233.749 828.283 125 694.156 125C689.621 125 685.099 125.129 680.625 125.375C617.992 128.817 561.708 156.052 520.562 198.125C517.624 201.13 514.781 204.19 512 207.344C467.498 156.886 402.411 125 329.844 125ZM352.625 375.875L424.781 375.875C427.018 388.737 432.577 407.75 440.406 429L499.688 591.75C503.043 600.138 508.645 618.003 512 629.188C515.915 616.885 520.398 603.497 524.312 592.312L584.156 429C593.663 402.717 596.982 391.533 599.219 375.875L671.375 375.875C663.546 390.974 658.515 402.166 645.094 435.719L562.344 638.156C550.6 667.235 548.355 673.373 545 689.031L479.562 689.031C476.207 675.051 472.84 666.117 461.656 638.156L379.469 435.719C372.199 417.824 364.369 400.48 352.625 375.875Z" fill-rule="evenodd" opacity="1" stroke="none"/>
<path d="M781.531 650.529C756.937 650.529 737 670.466 737 695.061L737 750.529L681.531 750.529C656.937 750.529 637 770.466 637 795.061L637 805.998C637 830.592 656.937 850.529 681.531 850.529L737 850.529L737 905.998C737 930.592 756.937 950.529 781.531 950.529L792.469 950.529C817.063 950.529 837 930.592 837 905.998L837 850.529L892.469 850.529C917.063 850.529 937 830.592 937 805.998L937 795.061C937 770.466 917.063 750.529 892.469 750.529L837 750.529L837 695.061C837 670.466 817.063 650.529 792.469 650.529L781.531 650.529Z" fill-rule="evenodd" opacity="1" stroke="none"/>
</g>
</svg>
