<?xml version="1.0" encoding="UTF-8" standalone="no"?>
<svg height="100%" stroke-miterlimit="10" style="fill-rule:nonzero;clip-rule:evenodd;stroke-linecap:round;stroke-linejoin:round;" version="1.1" viewBox="0 0 1024 1024" width="100%">
<defs/>
<g id="Layer-1">
<path d="M509.281 50C507.899 50 506.564 50.1587 505.188 50.1875C500.706 50.3124 496.452 50.5762 492.406 50.875C491.24 50.9756 490.067 51.0039 488.906 51.125C479.266 51.9791 470.767 53.2679 463.469 55.0938C274.949 94.5192 154.406 402.296 154.406 580.656C154.406 771.471 270.212 950 503.906 950C506.746 950 509.332 949.898 512 949.812C514.662 949.897 517.262 950 520.094 950C753.788 950 869.594 771.471 869.594 580.656C869.594 402.296 749.051 94.5193 560.531 55.0938C553.249 53.2719 544.739 51.9794 535.125 51.125C533.92 50.9992 532.71 50.9788 531.5 50.875C527.49 50.5799 523.282 50.3119 518.844 50.1875C517.457 50.1582 516.112 50 514.719 50C513.767 50 512.934 50.0554 512 50.0625C511.064 50.0554 510.235 50 509.281 50ZM352.625 375.875L424.781 375.875C427.018 388.737 432.577 407.75 440.406 429L499.688 591.75C503.043 600.138 508.645 618.003 512 629.188C515.915 616.885 520.398 603.497 524.312 592.312L584.156 429C593.663 402.717 596.982 391.533 599.219 375.875L671.375 375.875C663.546 390.974 658.515 402.166 645.094 435.719L562.344 638.156C550.6 667.235 548.355 673.373 545 689.031L479.562 689.031C476.207 675.051 472.84 666.117 461.656 638.156L379.469 435.719C372.199 417.824 364.369 400.48 352.625 375.875Z" fill-rule="evenodd" opacity="1" stroke="none"/>
</g>
</svg>
